<svg width="28" height="28" viewBox="0 0 28 28" fill="none" xmlns="http://www.w3.org/2000/svg">
<path d="M23.2411 11.2465L24.3226 10.165C25.183 9.30466 25.6663 8.13779 25.6663 6.92109C25.6663 5.70438 25.183 4.53751 24.3226 3.67717C23.4623 2.81683 22.2954 2.3335 21.0787 2.3335C19.862 2.3335 18.6952 2.81683 17.8348 3.67717L16.7533 4.75867L6.81098 14.6987C6.13781 15.373 5.80065 15.7102 5.51131 16.0812C5.16994 16.5192 4.87696 16.9929 4.63748 17.494C4.43565 17.9187 4.28515 18.3713 3.98415 19.2743L2.70781 23.1022M23.2411 11.2465C23.2411 11.2465 20.944 11.1112 18.9163 9.0835C16.8886 7.057 16.7545 4.75867 16.7545 4.75867M23.2411 11.2465L13.3 21.1865C12.6268 21.8597 12.2896 22.1968 11.9186 22.4862C11.4806 22.8275 11.0069 23.1205 10.5058 23.36C10.0811 23.5618 9.62965 23.7123 8.72548 24.0133L4.89765 25.2897M4.89765 25.2897L3.96198 25.6023C3.74388 25.6755 3.5097 25.6863 3.28577 25.6337C3.06183 25.581 2.85703 25.467 2.69436 25.3043C2.5317 25.1416 2.41763 24.9368 2.36498 24.7129C2.31233 24.489 2.32318 24.2548 2.39631 24.0367L2.70898 23.101L4.89765 25.2897Z" stroke="white" stroke-width="1.5"/>
</svg>
