<svg width="66" height="66" viewBox="0 0 66 66" fill="none" xmlns="http://www.w3.org/2000/svg">
<rect width="66" height="66" rx="33" fill="#E51236"/>
<path d="M42.2411 30.2467L43.3226 29.1652C44.183 28.3049 44.6663 27.138 44.6663 25.9213C44.6663 24.7046 44.183 23.5378 43.3226 22.6774C42.4623 21.8171 41.2954 21.3337 40.0787 21.3337C38.862 21.3337 37.6952 21.8171 36.8348 22.6774L35.7533 23.7589L25.811 33.6989C25.1378 34.3732 24.8006 34.7104 24.5113 35.0814C24.1699 35.5195 23.877 35.9932 23.6375 36.4942C23.4356 36.9189 23.2851 37.3716 22.9841 38.2746L21.7078 42.1024M42.2411 30.2467C42.2411 30.2467 39.944 30.1114 37.9163 28.0837C35.8886 26.0572 35.7545 23.7589 35.7545 23.7589M42.2411 30.2467L32.3 40.1867C31.6268 40.8599 31.2896 41.1971 30.9186 41.4864C30.4806 41.8278 30.0069 42.1208 29.5058 42.3602C29.0811 42.5621 28.6296 42.7126 27.7255 43.0136L23.8976 44.2899M23.8976 44.2899L22.962 44.6026C22.7439 44.6757 22.5097 44.6866 22.2858 44.6339C22.0618 44.5813 21.857 44.4672 21.6944 44.3045C21.5317 44.1419 21.4176 43.9371 21.365 43.7131C21.3123 43.4892 21.3232 43.255 21.3963 43.0369L21.709 42.1012L23.8976 44.2899Z" stroke="white" stroke-width="1.5"/>
</svg>
