<svg width="43" height="67" viewBox="0 0 43 67" fill="none" xmlns="http://www.w3.org/2000/svg">
<path d="M35.6918 16.87L37.3527 15.2477C38.6739 13.9572 39.4162 12.2069 39.4162 10.3819C39.4162 8.55682 38.6739 6.80651 37.3527 5.516C36.0314 4.22549 34.2394 3.50049 32.3709 3.50049C30.5024 3.50049 28.7104 4.22549 27.3892 5.516L25.7283 7.13825L10.4597 22.0482C9.42595 23.0597 8.90816 23.5655 8.46383 24.122C7.93957 24.7791 7.48963 25.4896 7.12187 26.2412C6.81191 26.8782 6.58079 27.5572 6.11854 28.9117L4.15845 34.6535M35.6918 16.87C35.6918 16.87 32.164 16.667 29.0501 13.6255C25.9362 10.5857 25.7301 7.13825 25.7301 7.13825M35.6918 16.87L20.425 31.78C19.3912 32.7897 18.8734 33.2955 18.3037 33.7295C17.6309 34.2416 16.9035 34.681 16.134 35.0403C15.4818 35.343 14.7884 35.5687 13.3999 36.0202L7.52141 37.9347M7.52141 37.9347L6.08449 38.4037C5.74955 38.5134 5.38992 38.5297 5.04602 38.4507C4.70212 38.3718 4.3876 38.2007 4.1378 37.9567C3.88799 37.7127 3.71282 37.4055 3.63196 37.0696C3.5511 36.7337 3.56776 36.3824 3.68008 36.0552L4.16024 34.6517L7.52141 37.9347Z" stroke="white" stroke-width="1.5"/>
<path d="M5.63611 63V49.4889H13.7903V50.9403H7.27222V55.5056H13.3681V56.9569H7.27222V61.5486H13.8958V63H5.63611ZM20.3545 63.2111C19.5101 63.2111 18.7646 62.9978 18.1181 62.5712C17.4715 62.1402 16.9657 61.5332 16.6007 60.7503C16.2356 59.9631 16.0531 59.0329 16.0531 57.9597C16.0531 56.8954 16.2356 55.9718 16.6007 55.1889C16.9657 54.406 17.4737 53.8013 18.1247 53.3747C18.7756 52.948 19.5277 52.7347 20.3809 52.7347C21.0406 52.7347 21.5618 52.8447 21.9444 53.0646C22.3315 53.2801 22.6262 53.5264 22.8285 53.8035C23.0352 54.0762 23.1957 54.3005 23.3101 54.4764H23.442V49.4889H24.999V63H23.4948V61.4431H23.3101C23.1957 61.6278 23.033 61.8609 22.8219 62.1424C22.6108 62.4194 22.3095 62.6679 21.9181 62.8878C21.5266 63.1034 21.0054 63.2111 20.3545 63.2111ZM20.5656 61.8125C21.1902 61.8125 21.7179 61.6498 22.149 61.3243C22.58 60.9944 22.9076 60.5392 23.1319 59.9587C23.3562 59.3737 23.4684 58.6986 23.4684 57.9333C23.4684 57.1769 23.3584 56.5149 23.1385 55.9476C22.9186 55.3758 22.5932 54.9316 22.1622 54.6149C21.7311 54.2939 21.199 54.1333 20.5656 54.1333C19.9059 54.1333 19.3561 54.3027 18.9163 54.6413C18.4809 54.9756 18.1532 55.4308 17.9333 56.0069C17.7178 56.5787 17.6101 57.2208 17.6101 57.9333C17.6101 58.6546 17.72 59.31 17.9399 59.8993C18.1642 60.4843 18.4941 60.9505 18.9295 61.2979C19.3693 61.641 19.9147 61.8125 20.5656 61.8125ZM28.0667 63V52.8667H29.6236V63H28.0667ZM28.8583 51.1778C28.5549 51.1778 28.2932 51.0744 28.0733 50.8677C27.8578 50.661 27.75 50.4125 27.75 50.1222C27.75 49.8319 27.8578 49.5834 28.0733 49.3767C28.2932 49.17 28.5549 49.0667 28.8583 49.0667C29.1618 49.0667 29.4213 49.17 29.6368 49.3767C29.8567 49.5834 29.9667 49.8319 29.9667 50.1222C29.9667 50.4125 29.8567 50.661 29.6368 50.8677C29.4213 51.0744 29.1618 51.1778 28.8583 51.1778ZM36.8822 52.8667V54.1861H31.6308V52.8667H36.8822ZM33.1614 50.4389H34.7183V60.0972C34.7183 60.537 34.7821 60.8669 34.9096 61.0868C35.0416 61.3023 35.2087 61.4475 35.411 61.5222C35.6177 61.5926 35.8354 61.6278 36.0641 61.6278C36.2357 61.6278 36.3764 61.619 36.4864 61.6014C36.5963 61.5794 36.6843 61.5618 36.7503 61.5486L37.0669 62.9472C36.9614 62.9868 36.814 63.0264 36.6249 63.066C36.4358 63.11 36.1961 63.1319 35.9058 63.1319C35.466 63.1319 35.035 63.0374 34.6128 62.8483C34.1949 62.6591 33.8475 62.3711 33.5704 61.984C33.2977 61.597 33.1614 61.1088 33.1614 60.5194V50.4389Z" fill="white"/>
</svg>
