<svg width="66" height="66" viewBox="0 0 66 66" fill="none" xmlns="http://www.w3.org/2000/svg">
<rect width="66" height="66" rx="19" fill="#E51236" fill-opacity="0.14"/>
<path d="M23.6667 45.5002C23.025 45.5002 22.4759 45.2719 22.0193 44.8153C21.5628 44.3588 21.3341 43.8093 21.3333 43.1668V30.3335C21.3333 29.6918 21.562 29.1427 22.0193 28.6862C22.4767 28.2296 23.0258 28.0009 23.6667 28.0002H28.3333V25.6668C28.3333 25.0252 28.562 24.4761 29.0193 24.0195C29.4767 23.5629 30.0258 23.3343 30.6667 23.3335H35.3333C35.975 23.3335 36.5245 23.5622 36.9818 24.0195C37.4392 24.4768 37.6675 25.0259 37.6667 25.6668V28.0002H42.3333C42.975 28.0002 43.5245 28.2288 43.9818 28.6862C44.4392 29.1435 44.6675 29.6926 44.6667 30.3335V43.1668C44.6667 43.8085 44.4384 44.358 43.9818 44.8153C43.5253 45.2727 42.9758 45.5009 42.3333 45.5002H23.6667ZM23.6667 43.1668H42.3333V30.3335H23.6667V43.1668ZM30.6667 28.0002H35.3333V25.6668H30.6667V28.0002Z" fill="#E51236"/>
</svg>
