<svg width="49" height="22" viewBox="0 0 49 22" fill="none" xmlns="http://www.w3.org/2000/svg">
<path fill-rule="evenodd" clip-rule="evenodd" d="M18 0.0148078C20.9814 -0.0186974 18.5001 0.0150236 25.2676 0.0157843L33 0.0148078L39.168 12.2052C40.8372 13.5779 43.5355 14.4591 49 16.0724L39.168 16.717L39.9238 21.0148H11.0752L11.7236 16.717C6.85971 16.7239 4.34383 16.5364 0 16.0724C4.37972 14.0911 6.8248 13.0201 11.0752 11.507L18 0.0148078ZM25.499 16.9318C23.6888 18.6075 22.7388 18.7723 21.1777 17.0392H16.6396C16.6546 17.0767 17.7441 19.7803 21.1777 20.047C24.6108 20.3136 25.4868 16.9788 25.499 16.9318ZM36.5205 16.9318C34.7101 18.6078 33.7595 18.7726 32.1982 17.0392H27.6602C27.6717 17.0683 28.7595 19.7798 32.1982 20.047C35.6347 20.314 36.51 16.9725 36.5205 16.9318Z" fill="black"/>
</svg>
