<svg width="66" height="66" viewBox="0 0 66 66" fill="none" xmlns="http://www.w3.org/2000/svg">
<rect width="66" height="66" rx="33" fill="#FF823E"/>
<path fill-rule="evenodd" clip-rule="evenodd" d="M26 22.0148C28.9814 21.9813 26.5001 22.015 33.2676 22.0158L41 22.0148L47.168 34.2052C48.8372 35.5779 51.5355 36.4591 57 38.0724L47.168 38.717L47.9238 43.0148H19.0752L19.7236 38.717C14.8597 38.7239 12.3438 38.5364 8 38.0724C12.3797 36.0911 14.8248 35.0201 19.0752 33.507L26 22.0148ZM33.499 38.9318C31.6888 40.6075 30.7388 40.7723 29.1777 39.0392H24.6396C24.6546 39.0767 25.7441 41.7803 29.1777 42.047C32.6108 42.3136 33.4868 38.9788 33.499 38.9318ZM44.5205 38.9318C42.7101 40.6078 41.7595 40.7726 40.1982 39.0392H35.6602C35.6717 39.0683 36.7595 41.7798 40.1982 42.047C43.6347 42.314 44.51 38.9725 44.5205 38.9318Z" fill="black"/>
</svg>
