<svg width="65" height="65" viewBox="0 0 65 65" fill="none" xmlns="http://www.w3.org/2000/svg">
<g clip-path="url(#clip0_215_1145)">
<path d="M42.6853 31.3103H34.154V22.779C34.154 21.9941 33.517 21.3571 32.7321 21.3571C31.9473 21.3571 31.3103 21.9941 31.3103 22.779V31.3103H22.779C21.9941 31.3103 21.3571 31.9473 21.3571 32.7321C21.3571 33.517 21.9941 34.154 22.779 34.154H31.3103V42.6853C31.3103 43.4701 31.9473 44.1071 32.7321 44.1071C33.517 44.1071 34.154 43.4701 34.154 42.6853V34.154H42.6853C43.4701 34.154 44.1071 33.517 44.1071 32.7321C44.1071 31.9473 43.4701 31.3103 42.6853 31.3103Z" fill="white"/>
<path fill-rule="evenodd" clip-rule="evenodd" d="M32.5 61.0015C16.8198 61.0015 4.0625 48.1802 4.0625 32.4999C4.0625 16.8196 16.8198 4.06237 32.5 4.06237C48.1802 4.06237 60.9375 16.8197 60.9375 32.4999C60.9375 48.18 48.1802 61.0015 32.5 61.0015ZM34.154 31.3103H42.6853C43.4701 31.3103 44.1071 31.9473 44.1071 32.7321C44.1071 33.517 43.4701 34.154 42.6853 34.154H34.154V42.6853C34.154 43.4701 33.517 44.1071 32.7321 44.1071C31.9473 44.1071 31.3103 43.4701 31.3103 42.6853V34.154H22.779C21.9941 34.154 21.3571 33.517 21.3571 32.7321C21.3571 31.9473 21.9941 31.3103 22.779 31.3103H31.3103V22.779C31.3103 21.9941 31.9473 21.3571 32.7321 21.3571C33.517 21.3571 34.154 21.9941 34.154 22.779V31.3103Z" fill="#E51236"/>
<path fill-rule="evenodd" clip-rule="evenodd" d="M32.5 0C14.5509 0 0 14.5509 0 32.5C0 50.4502 14.5509 65 32.5 65C50.4502 65 65 50.4502 65 32.5C65 14.5509 50.4502 0 32.5 0ZM4.0625 32.4999C4.0625 48.1802 16.8198 61.0015 32.5 61.0015C48.1802 61.0015 60.9375 48.18 60.9375 32.4999C60.9375 16.8197 48.1802 4.06237 32.5 4.06237C16.8198 4.06237 4.0625 16.8196 4.0625 32.4999Z" fill="#E51236"/>
</g>
<defs>
<clipPath id="clip0_215_1145">
<rect width="65" height="65" fill="white"/>
</clipPath>
</defs>
</svg>
