<svg width="55" height="54" viewBox="0 0 55 54" fill="none" xmlns="http://www.w3.org/2000/svg">
<rect width="55" height="54" rx="6" fill="white"/>
<g clip-path="url(#clip0_35_12)">
<path d="M18.5317 21.3973V42.9999H11.4103V21.3973H18.5317ZM18.9845 14.7279L18.9871 14.8586C18.9871 15.8573 18.5674 16.7559 17.8968 17.3853L17.8942 17.3866C17.499 17.7514 17.0363 18.0334 16.5326 18.2165C16.029 18.3996 15.4944 18.48 14.9598 18.4533H14.9691H14.9255C14.4032 18.4779 13.8813 18.3961 13.391 18.2126C12.9007 18.0291 12.452 17.7477 12.0717 17.3853L12.073 17.3866C11.72 17.0426 11.442 16.628 11.2568 16.1693C11.0715 15.7106 10.9831 15.2178 10.9972 14.7226V14.7279L10.9959 14.6359C10.9959 13.6199 11.4235 12.7053 12.106 12.0639L12.1086 12.0626C12.9016 11.3339 13.9482 10.9522 15.0192 11.0013H15.0113C15.5361 10.9751 16.0608 11.0555 16.5543 11.2375C17.0479 11.4196 17.5003 11.6997 17.8849 12.0613L17.8823 12.0586C18.2313 12.3975 18.5089 12.8042 18.6983 13.2542C18.8877 13.7042 18.985 14.1883 18.9845 14.6773V14.7333V14.7306V14.7279ZM44.1463 30.6213V42.9999H37.0474V31.4466C37.1197 30.1788 36.809 28.9187 36.1564 27.8333L36.1722 27.8613C35.8648 27.425 35.4509 27.0764 34.9708 26.8493C34.4906 26.6223 33.9605 26.5244 33.4319 26.5653H33.4425C32.6163 26.535 31.8065 26.8036 31.1589 27.3226L31.1668 27.3173C30.5689 27.8045 30.1007 28.4346 29.8045 29.1506L29.794 29.1813C29.6142 29.7546 29.5343 30.355 29.5577 30.9559V30.9466V43.0026H22.4587C22.4878 37.2044 22.5023 32.5031 22.5023 28.8986C22.5023 25.2942 22.4953 23.1435 22.4812 22.4466L22.4601 21.3999H29.559V24.5386H29.5155C29.7979 24.0786 30.0897 23.6799 30.4104 23.3066L30.3999 23.3186C30.7703 22.9071 31.1699 22.5346 31.5984 22.2013L31.6195 22.1853C32.1686 21.7592 32.7918 21.4409 33.457 21.2466L33.4966 21.2373C34.2673 21.0111 35.066 20.8971 35.8686 20.8986H35.9729H35.9676C37.0741 20.8523 38.1773 21.0489 39.2012 21.475C40.2251 21.9011 41.1453 22.5465 41.8984 23.3666L41.9023 23.3719C43.4001 25.0217 44.149 27.4377 44.149 30.6199L44.1463 30.6213Z" fill="#007AB6"/>
</g>
<defs>
<clipPath id="clip0_35_12">
<rect width="33" height="32" fill="white" transform="translate(11 11)"/>
</clipPath>
</defs>
</svg>
