<svg width="62" height="68" viewBox="0 0 62 68" fill="none" xmlns="http://www.w3.org/2000/svg">
<path d="M37.6106 11.5V5.01389C37.6106 4.45394 37.1567 4 36.5967 4H28.3053H20.0139C19.4539 4 19 4.45394 19 5.01389L19 38.4861C19 39.0461 19.4539 39.5 20.0139 39.5H36.5967C37.1566 39.5 37.6106 39.0461 37.6106 38.4861V31.524" stroke="white" stroke-width="1.5" stroke-linecap="round"/>
<g filter="url(#filter0_d_37_51)">
<path d="M30 21.25C29.5858 21.25 29.25 21.5858 29.25 22C29.25 22.4142 29.5858 22.75 30 22.75V22V21.25ZM47.6121 22.5303C47.905 22.2374 47.905 21.7626 47.6121 21.4697L42.8391 16.6967C42.5462 16.4038 42.0713 16.4038 41.7784 16.6967C41.4855 16.9896 41.4855 17.4645 41.7784 17.7574L46.0211 22L41.7784 26.2426C41.4855 26.5355 41.4855 27.0104 41.7784 27.3033C42.0713 27.5962 42.5462 27.5962 42.8391 27.3033L47.6121 22.5303ZM30 22V22.75L47.0817 22.75V22V21.25L30 21.25V22Z" fill="white"/>
</g>
<path d="M1.63611 63V49.4889H3.27222V61.5486H9.55278V63H1.63611ZM15.9917 63.2111C15.0769 63.2111 14.2742 62.9934 13.5837 62.558C12.8976 62.1226 12.361 61.5134 11.974 60.7306C11.5913 59.9477 11.4 59.0329 11.4 57.9861C11.4 56.9306 11.5913 56.0091 11.974 55.2219C12.361 54.4346 12.8976 53.8233 13.5837 53.3878C14.2742 52.9524 15.0769 52.7347 15.9917 52.7347C16.9065 52.7347 17.7069 52.9524 18.3931 53.3878C19.0836 53.8233 19.6201 54.4346 20.0028 55.2219C20.3898 56.0091 20.5833 56.9306 20.5833 57.9861C20.5833 59.0329 20.3898 59.9477 20.0028 60.7306C19.6201 61.5134 19.0836 62.1226 18.3931 62.558C17.7069 62.9934 16.9065 63.2111 15.9917 63.2111ZM15.9917 61.8125C16.6866 61.8125 17.2583 61.6344 17.7069 61.2781C18.1556 60.9219 18.4876 60.4535 18.7031 59.8729C18.9186 59.2924 19.0264 58.6634 19.0264 57.9861C19.0264 57.3088 18.9186 56.6777 18.7031 56.0927C18.4876 55.5078 18.1556 55.035 17.7069 54.6743C17.2583 54.3137 16.6866 54.1333 15.9917 54.1333C15.2968 54.1333 14.725 54.3137 14.2764 54.6743C13.8278 55.035 13.4957 55.5078 13.2802 56.0927C13.0647 56.6777 12.9569 57.3088 12.9569 57.9861C12.9569 58.6634 13.0647 59.2924 13.2802 59.8729C13.4957 60.4535 13.8278 60.9219 14.2764 61.2781C14.725 61.6344 15.2968 61.8125 15.9917 61.8125ZM27.0503 67.0111C26.2982 67.0111 25.6516 66.9144 25.1107 66.7208C24.5697 66.5317 24.1189 66.281 23.7582 65.9688C23.402 65.6609 23.1183 65.331 22.9072 64.9792L24.1475 64.1083C24.2882 64.2931 24.4663 64.5042 24.6819 64.7417C24.8974 64.9836 25.192 65.1925 25.5659 65.3684C25.9441 65.5487 26.4389 65.6389 27.0503 65.6389C27.8683 65.6389 28.5434 65.441 29.0756 65.0451C29.6078 64.6493 29.8739 64.0292 29.8739 63.1847V61.1264H29.7419C29.6276 61.3111 29.4648 61.5398 29.2537 61.8125C29.047 62.0808 28.7479 62.3205 28.3565 62.5316C27.9695 62.7383 27.4461 62.8417 26.7864 62.8417C25.9683 62.8417 25.2338 62.6481 24.5829 62.2611C23.9364 61.8741 23.424 61.3111 23.0457 60.5722C22.6719 59.8333 22.485 58.9361 22.485 57.8806C22.485 56.8426 22.6675 55.9388 23.0326 55.1691C23.3976 54.395 23.9056 53.7969 24.5565 53.3747C25.2074 52.948 25.9595 52.7347 26.8128 52.7347C27.4725 52.7347 27.9959 52.8447 28.3829 53.0646C28.7743 53.2801 29.0734 53.5264 29.2801 53.8035C29.4912 54.0762 29.654 54.3005 29.7683 54.4764H29.9266V52.8667H31.4308V63.2903C31.4308 64.1611 31.2329 64.8692 30.8371 65.4146C30.4456 65.9644 29.9179 66.3668 29.2537 66.6219C28.594 66.8814 27.8595 67.0111 27.0503 67.0111ZM26.9975 61.4431C27.622 61.4431 28.1498 61.3001 28.5808 61.0142C29.0118 60.7284 29.3395 60.3171 29.5638 59.7806C29.7881 59.244 29.9003 58.6019 29.9003 57.8542C29.9003 57.1241 29.7903 56.4797 29.5704 55.9212C29.3505 55.3626 29.025 54.925 28.594 54.6083C28.163 54.2917 27.6308 54.1333 26.9975 54.1333C26.3378 54.1333 25.788 54.3005 25.3482 54.6347C24.9128 54.969 24.5851 55.4176 24.3652 55.9806C24.1497 56.5435 24.0419 57.1681 24.0419 57.8542C24.0419 58.5579 24.1519 59.1802 24.3718 59.7212C24.5961 60.2578 24.926 60.68 25.3614 60.9878C25.8012 61.2913 26.3466 61.4431 26.9975 61.4431ZM38.3975 63.2111C37.4827 63.2111 36.68 62.9934 35.9895 62.558C35.3034 62.1226 34.7668 61.5134 34.3798 60.7306C33.9971 59.9477 33.8058 59.0329 33.8058 57.9861C33.8058 56.9306 33.9971 56.0091 34.3798 55.2219C34.7668 54.4346 35.3034 53.8233 35.9895 53.3878C36.68 52.9524 37.4827 52.7347 38.3975 52.7347C39.3123 52.7347 40.1128 52.9524 40.7989 53.3878C41.4894 53.8233 42.026 54.4346 42.4086 55.2219C42.7956 56.0091 42.9891 56.9306 42.9891 57.9861C42.9891 59.0329 42.7956 59.9477 42.4086 60.7306C42.026 61.5134 41.4894 62.1226 40.7989 62.558C40.1128 62.9934 39.3123 63.2111 38.3975 63.2111ZM38.3975 61.8125C39.0924 61.8125 39.6641 61.6344 40.1128 61.2781C40.5614 60.9219 40.8934 60.4535 41.1089 59.8729C41.3245 59.2924 41.4322 58.6634 41.4322 57.9861C41.4322 57.3088 41.3245 56.6777 41.1089 56.0927C40.8934 55.5078 40.5614 55.035 40.1128 54.6743C39.6641 54.3137 39.0924 54.1333 38.3975 54.1333C37.7026 54.1333 37.1308 54.3137 36.6822 54.6743C36.2336 55.035 35.9015 55.5078 35.686 56.0927C35.4705 56.6777 35.3628 57.3088 35.3628 57.9861C35.3628 58.6634 35.4705 59.2924 35.686 59.8729C35.9015 60.4535 36.2336 60.9219 36.6822 61.2781C37.1308 61.6344 37.7026 61.8125 38.3975 61.8125ZM51.7519 58.8569V52.8667H53.3089V63H51.7519V61.2847H51.6464C51.4089 61.7993 51.0394 62.2369 50.538 62.5976C50.0366 62.9538 49.4033 63.1319 48.638 63.1319C48.0047 63.1319 47.4417 62.9934 46.9491 62.7163C46.4565 62.4348 46.0695 62.0126 45.788 61.4497C45.5065 60.8823 45.3658 60.1676 45.3658 59.3056V52.8667H46.9227V59.2C46.9227 59.9389 47.1295 60.5282 47.5429 60.9681C47.9607 61.4079 48.4929 61.6278 49.1394 61.6278C49.5264 61.6278 49.9201 61.5288 50.3203 61.3309C50.7249 61.133 51.0636 60.8295 51.3363 60.4205C51.6134 60.0115 51.7519 59.4903 51.7519 58.8569ZM60.5674 52.8667V54.1861H55.3161V52.8667H60.5674ZM56.8466 50.4389H58.4036V60.0972C58.4036 60.537 58.4673 60.8669 58.5949 61.0868C58.7268 61.3023 58.894 61.4475 59.0963 61.5222C59.303 61.5926 59.5207 61.6278 59.7494 61.6278C59.9209 61.6278 60.0617 61.619 60.1716 61.6014C60.2816 61.5794 60.3695 61.5618 60.4355 61.5486L60.7522 62.9472C60.6466 62.9868 60.4993 63.0264 60.3102 63.066C60.121 63.11 59.8813 63.1319 59.5911 63.1319C59.1512 63.1319 58.7202 63.0374 58.298 62.8483C57.8802 62.6591 57.5327 62.3711 57.2556 61.984C56.983 61.597 56.8466 61.1088 56.8466 60.5194V50.4389Z" fill="white"/>
<defs>
<filter id="filter0_d_37_51" x="27.9643" y="16.4771" width="21.1531" height="13.6172" filterUnits="userSpaceOnUse" color-interpolation-filters="sRGB">
<feFlood flood-opacity="0" result="BackgroundImageFix"/>
<feColorMatrix in="SourceAlpha" type="matrix" values="0 0 0 0 0 0 0 0 0 0 0 0 0 0 0 0 0 0 127 0" result="hardAlpha"/>
<feOffset dy="1.28566"/>
<feGaussianBlur stdDeviation="0.642831"/>
<feComposite in2="hardAlpha" operator="out"/>
<feColorMatrix type="matrix" values="0 0 0 0 0 0 0 0 0 0 0 0 0 0 0 0 0 0 0.25 0"/>
<feBlend mode="normal" in2="BackgroundImageFix" result="effect1_dropShadow_37_51"/>
<feBlend mode="normal" in="SourceGraphic" in2="effect1_dropShadow_37_51" result="shape"/>
</filter>
</defs>
</svg>
