<svg width="65" height="65" viewBox="0 0 65 65" fill="none" xmlns="http://www.w3.org/2000/svg">
<rect width="65" height="65" rx="32.5" fill="#E51236"/>
<path d="M40.6106 22.5V16.0139C40.6106 15.4539 40.1567 15 39.5967 15H31.3053H23.0139C22.4539 15 22 15.4539 22 16.0139L22 49.4861C22 50.0461 22.4539 50.5 23.0139 50.5H39.5967C40.1566 50.5 40.6106 50.0461 40.6106 49.4861V42.524" stroke="white" stroke-width="1.5" stroke-linecap="round"/>
<path d="M32 32.25C31.5858 32.25 31.25 32.5858 31.25 33C31.25 33.4142 31.5858 33.75 32 33.75V33V32.25ZM49.6121 33.5303C49.905 33.2374 49.905 32.7626 49.6121 32.4697L44.8391 27.6967C44.5462 27.4038 44.0713 27.4038 43.7784 27.6967C43.4855 27.9896 43.4855 28.4645 43.7784 28.7574L48.0211 33L43.7784 37.2426C43.4855 37.5355 43.4855 38.0104 43.7784 38.3033C44.0713 38.5962 44.5462 38.5962 44.8391 38.3033L49.6121 33.5303ZM32 33V33.75L49.0817 33.75V33V32.25L32 32.25V33Z" fill="white"/>
</svg>
