<svg width="20" height="20" viewBox="0 0 20 20" fill="none" xmlns="http://www.w3.org/2000/svg">
<path fill-rule="evenodd" clip-rule="evenodd" d="M9.16624 1.78891e-08C7.72069 0.000125007 6.29566 0.342093 5.00749 0.997986C3.71932 1.65388 2.60452 2.6051 1.75412 3.774C0.903714 4.9429 0.341808 6.29633 0.114274 7.7238C-0.113261 9.15128 2.69072e-05 10.6123 0.444888 11.9877C0.889749 13.363 1.65357 14.6137 2.674 15.6375C3.69443 16.6613 4.94253 17.4294 6.31641 17.8789C7.69029 18.3284 9.151 18.4466 10.5793 18.2239C12.0076 18.0012 13.363 17.4439 14.5348 16.5975L17.9374 20L20 17.9375L16.5974 14.535C17.5863 13.1663 18.1779 11.5511 18.307 9.86754C18.4361 8.18396 18.0977 6.49744 17.329 4.994C16.5604 3.49056 15.3914 2.22863 13.951 1.3474C12.5106 0.466172 10.8548 -0.000105453 9.16624 1.78891e-08ZM4.15771 4.15833C4.81263 3.488 5.59406 2.95429 6.45673 2.58811C7.3194 2.22194 8.24616 2.03058 9.18332 2.02512C10.1205 2.01966 11.0494 2.20022 11.9163 2.55632C12.7832 2.91243 13.5708 3.437 14.2334 4.09966C14.8961 4.76232 15.4207 5.54988 15.7768 6.41672C16.133 7.28357 16.3135 8.21246 16.3081 9.14958C16.3026 10.0867 16.1112 11.0134 15.7451 11.8761C15.3789 12.7387 14.8451 13.5201 14.1748 14.175C12.8412 15.4778 11.0477 16.2024 9.18332 16.1915C7.31895 16.1807 5.53403 15.4353 4.2157 14.117C2.89737 12.7987 2.15194 11.0139 2.14108 9.14958C2.13022 7.28529 2.85482 5.49188 4.15771 4.15833Z" fill="white"/>
</svg>
