<svg width="53" height="28" viewBox="0 0 53 28" fill="none" xmlns="http://www.w3.org/2000/svg">
<path d="M41.9434 18.5127C43.7309 19.9912 46.6204 20.9411 52.4727 22.6787L41.9434 23.373L42.7539 28.001H11.8604L12.5537 23.373C7.34536 23.3805 4.65153 23.1784 0 22.6787C4.69022 20.5449 7.30867 19.3903 11.8604 17.7607L19.1494 0C21.7404 2.55842 23.3851 3.87267 26.7285 5.95898L33.2656 0L41.9434 18.5127ZM27.3066 23.6035C25.3678 25.4086 24.3506 25.5865 22.6787 23.7197H17.8184C17.8184 23.7197 18.9761 26.6707 22.6787 26.96C26.381 27.249 27.3066 23.6035 27.3066 23.6035ZM39.1084 23.6035C37.1695 25.4087 36.1524 25.5867 34.4805 23.7197H29.6211C29.6295 23.7411 30.7913 26.6717 34.4805 26.96C38.183 27.2492 39.1084 23.6035 39.1084 23.6035Z" fill="white"/>
</svg>
