<svg width="20" height="20" viewBox="0 0 20 20" fill="none" xmlns="http://www.w3.org/2000/svg">
<path d="M6.31269 15.4583L9.98769 13.2417L13.6627 15.4875L12.7002 11.2875L15.9377 8.4875L11.6794 8.10833L9.98769 4.14167L8.29602 8.07917L4.03769 8.45833L7.27519 11.2875L6.31269 15.4583ZM9.98769 15.9833L5.14602 18.9C4.93213 19.0361 4.70852 19.0944 4.47519 19.075C4.24186 19.0556 4.03769 18.9778 3.86269 18.8417C3.68769 18.7056 3.55158 18.5356 3.45436 18.3318C3.35713 18.1281 3.33769 17.8994 3.39602 17.6458L4.67936 12.1333L0.391855 8.42917C0.197411 8.25417 0.0760773 8.05467 0.0278551 7.83067C-0.0203671 7.60667 -0.00597831 7.38811 0.0710217 7.175C0.148022 6.96189 0.264688 6.78689 0.421022 6.65C0.577355 6.51311 0.791244 6.42561 1.06269 6.3875L6.72102 5.89167L8.90852 0.7C9.00574 0.466667 9.15663 0.291667 9.36119 0.175C9.56575 0.0583332 9.77458 0 9.98769 0C10.2008 0 10.4096 0.0583332 10.6142 0.175C10.8187 0.291667 10.9696 0.466667 11.0669 0.7L13.2544 5.89167L18.9127 6.3875C19.1849 6.42639 19.3988 6.51389 19.5544 6.65C19.7099 6.78611 19.8266 6.96111 19.9044 7.175C19.9821 7.38889 19.9969 7.60783 19.9487 7.83183C19.9005 8.05583 19.7787 8.25495 19.5835 8.42917L15.296 12.1333L16.5794 17.6458C16.6377 17.8986 16.6182 18.1273 16.521 18.3318C16.4238 18.5364 16.2877 18.7063 16.1127 18.8417C15.9377 18.977 15.7335 19.0548 15.5002 19.075C15.2669 19.0952 15.0432 19.0369 14.8294 18.9L9.98769 15.9833Z" fill="#001442"/>
<path d="M6.31269 15.4583L9.98769 13.2417L13.6627 15.4875L12.7002 11.2875L15.9377 8.4875L11.6794 8.10833L9.98769 4.14167L8.29602 8.07917L4.03769 8.45833L7.27519 11.2875L6.31269 15.4583Z" fill="#001442"/>
</svg>
