<svg width="66" height="66" viewBox="0 0 66 66" fill="none" xmlns="http://www.w3.org/2000/svg">
<rect width="66" height="66" rx="33" fill="#FCEE58"/>
<path d="M52 29.6836L45.1143 32.5625L49.2061 40.4141L50.6045 45.999H16.7275L17.9121 40.4141L21.584 33.8232L16.8496 32.2373V43.3896C16.8496 43.733 16.6998 44.0628 16.4326 44.3057C16.1654 44.5485 15.8027 44.6846 15.4248 44.6846C15.0469 44.6845 14.6842 44.5485 14.417 44.3057C14.1499 44.0628 14 43.733 14 43.3896V30.2715L15.1172 29.6094L32.0732 20L52 29.6836ZM33.666 41.3945C31.54 43.2854 30.4242 43.4713 28.5908 41.5156H23.2617C23.2617 41.5156 24.5309 44.6061 28.5908 44.9092C32.644 45.2117 33.6626 41.4075 33.666 41.3945ZM46.6074 41.3945C44.4814 43.2854 43.3656 43.4713 41.5322 41.5156H36.2041C36.2092 41.5279 37.4805 44.6066 41.5322 44.9092C45.5818 45.2114 46.6022 41.4142 46.6074 41.3945Z" fill="black"/>
</svg>
