<svg width="38" height="26" viewBox="0 0 38 26" fill="none" xmlns="http://www.w3.org/2000/svg">
<path d="M38 9.68359L31.1143 12.5625L35.2061 20.4141L36.6045 25.999H2.72754L3.91211 20.4141L7.58398 13.8232L2.84961 12.2373V23.3896C2.84961 23.733 2.69979 24.0628 2.43262 24.3057C2.16539 24.5485 1.80272 24.6846 1.4248 24.6846C1.04693 24.6845 0.684189 24.5485 0.416992 24.3057C0.149906 24.0628 0 23.733 0 23.3896V10.2715L1.11719 9.60938L18.0732 0L38 9.68359ZM19.666 21.3945C17.54 23.2854 16.4242 23.4713 14.5908 21.5156H9.26172C9.26172 21.5156 10.5309 24.6061 14.5908 24.9092C18.644 25.2117 19.6626 21.4075 19.666 21.3945ZM32.6074 21.3945C30.4814 23.2854 29.3656 23.4713 27.5322 21.5156H22.2041C22.2092 21.5279 23.4805 24.6066 27.5322 24.9092C31.5818 25.2114 32.6022 21.4142 32.6074 21.3945Z" fill="black"/>
</svg>
