<svg width="66" height="66" viewBox="0 0 66 66" fill="none" xmlns="http://www.w3.org/2000/svg">
<rect width="66" height="66" rx="19" fill="#E51236" fill-opacity="0.14"/>
<path d="M43.7767 27.1699L33.2767 23.6699C33.0971 23.61 32.9029 23.61 32.7233 23.6699L22.2233 27.1699C22.0491 27.228 21.8975 27.3394 21.7901 27.4884C21.6828 27.6374 21.625 27.8164 21.625 28.0001V36.7501C21.625 36.9821 21.7172 37.2047 21.8813 37.3688C22.0454 37.5329 22.2679 37.6251 22.5 37.6251C22.7321 37.6251 22.9546 37.5329 23.1187 37.3688C23.2828 37.2047 23.375 36.9821 23.375 36.7501V29.2141L27.0489 30.438C26.0728 32.015 25.7624 33.9149 26.1859 35.7205C26.6093 37.5262 27.7321 39.0899 29.3075 40.0685C27.3387 40.8407 25.6369 42.2374 24.3922 44.1471C24.3275 44.2433 24.2825 44.3514 24.2599 44.4652C24.2373 44.5789 24.2376 44.696 24.2607 44.8096C24.2837 44.9233 24.3292 45.0312 24.3943 45.1271C24.4595 45.2231 24.543 45.3051 24.6401 45.3684C24.7373 45.4318 24.846 45.4752 24.9601 45.4962C25.0741 45.5171 25.1912 45.5152 25.3045 45.4905C25.4178 45.4658 25.5251 45.4188 25.6201 45.3523C25.715 45.2858 25.7959 45.2011 25.8578 45.103C27.5061 42.5743 30.1092 41.1251 33 41.1251C35.8908 41.1251 38.4939 42.5743 40.1422 45.103C40.2705 45.2938 40.4688 45.4263 40.6941 45.4721C40.9194 45.5178 41.1536 45.4731 41.3462 45.3475C41.5387 45.2219 41.6741 45.0255 41.7231 44.8009C41.772 44.5763 41.7306 44.3414 41.6078 44.1471C40.3631 42.2374 38.6547 40.8407 36.6925 40.0685C38.2664 39.09 39.3881 37.5272 39.8115 35.7229C40.2349 33.9186 39.9255 32.02 38.9511 30.4435L43.7767 28.8357C43.951 28.7776 44.1026 28.6662 44.21 28.5172C44.3174 28.3682 44.3752 28.1892 44.3752 28.0055C44.3752 27.8219 44.3174 27.6428 44.21 27.4938C44.1026 27.3448 43.951 27.2334 43.7767 27.1754V27.1699ZM38.25 34.1251C38.2502 34.9551 38.0537 35.7733 37.6765 36.5126C37.2992 37.2519 36.7521 37.8913 36.0799 38.3782C35.4078 38.8651 34.6297 39.1857 33.8097 39.3137C32.9896 39.4417 32.1509 39.3735 31.3623 39.1146C30.5737 38.8557 29.8577 38.4135 29.2731 37.8243C28.6886 37.2351 28.252 36.5157 27.9993 35.7251C27.7466 34.9345 27.6849 34.0952 27.8193 33.2762C27.9538 32.4572 28.2805 31.6817 28.7727 31.0133L32.7233 32.3258C32.9029 32.3857 33.0971 32.3857 33.2767 32.3258L37.2273 31.0133C37.892 31.9146 38.2505 33.0052 38.25 34.1251ZM33 30.578L25.2672 28.0001L33 25.4221L40.7328 28.0001L33 30.578Z" fill="#E51236"/>
</svg>
